<?xml version="1.0" encoding="utf-8"?>
<!-- Generator: Adobe Illustrator 21.1.0, SVG Export Plug-In . SVG Version: 6.00 Build 0)  -->
<svg version="1.1" id="Layer_1" xmlns="http://www.w3.org/2000/svg" xmlns:xlink="http://www.w3.org/1999/xlink" x="0px" y="0px"
	 viewBox="0 0 64.5 64.5" style="enable-background:new 0 0 64.5 64.5;" xml:space="preserve">
<style type="text/css">
	.st0{fill:#3C5A9A;}
	.st1{fill:#FFFFFF;}
</style>
<path class="st0" d="M64.3,5.9c0-3.1-2.6-5.6-5.6-5.6H5.9c-3.1,0-5.6,2.6-5.6,5.6v52.7c0,3.1,2.6,5.6,5.6,5.6h52.7
	c3.1,0,5.6-2.6,5.6-5.6V5.9"/>
<g id="Icon">
	<path class="st1" d="M42.7,10.1c0,0-4.3,0-7.1,0c-4.2,0-8.9,1.8-8.9,7.9c0,2.1,0,4.2,0,6.4h-4.9v7.7h5v22.3h9.2V32h6.1l0.6-7.6
		h-6.8c0,0,0-3.4,0-4.4c0-2.4,2.5-2.3,2.7-2.3c1.2,0,3.5,0,4.1,0L42.7,10.1L42.7,10.1z"/>
</g>
</svg>
