<?xml version="1.0" encoding="utf-8"?>
<!-- Generator: Adobe Illustrator 21.1.0, SVG Export Plug-In . SVG Version: 6.00 Build 0)  -->
<svg version="1.1" id="Layer_1" xmlns="http://www.w3.org/2000/svg" xmlns:xlink="http://www.w3.org/1999/xlink" x="0px" y="0px"
	 viewBox="0 0 64 64" style="enable-background:new 0 0 64 64;" xml:space="preserve">
<style type="text/css">
	.st0{fill:#FFFFFF;}
	.st1{fill:#1D87BD;}
</style>
<path class="st0" d="M10.3,11.1h43.1V54H10.3V11.1z"/>
<path class="st1" d="M12.8,51.2V24.4H21v26.8H12.8 M21.2,17c0.1,2.3-1.7,4.2-4.4,4.2c-2.6,0-4.2-1.9-4.2-4.2c0-2.4,1.7-4.2,4.4-4.2
	S21.2,14.6,21.2,17 M42.8,51.2V36.4c0-3.5-1.2-5.8-4.2-5.8c-2.2,0-3.6,1.6-4.2,3.1c-0.2,0.6-0.3,1.3-0.3,2.1v15.4h-8.2V33
	c0-3.3-0.1-6.1-0.2-8.6h7.1l0.4,3.8h0.1c1.1-1.8,3.8-4.4,8.2-4.4c5.4,0,9.5,3.6,9.5,11.6v15.8H42.8 M64,5.6C64,2.6,61.4,0,58.4,0
	H5.6C2.6,0,0,2.6,0,5.6v52.7C0,61.4,2.6,64,5.6,64h52.7c3.1,0,5.6-2.6,5.6-5.6V5.6"/>
</svg>
