<svg id="Layer_1" data-name="Layer 1" xmlns="http://www.w3.org/2000/svg" viewBox="0 0 273.36 50"><defs><style>.cls-1{fill:#333;}.cls-2{fill:#fff;}</style></defs><title>Postman ForREDBG</title><path class="cls-1" d="M88.25,34.79l.3-1.45h.36A4.24,4.24,0,0,0,90.48,33a1.68,1.68,0,0,0,.95-1.36l2.8-13.16a6.13,6.13,0,0,0,.16-.93.72.72,0,0,0-.56-.77,5.12,5.12,0,0,0-1.41-.16h-.36l.3-1.45h7.84a8.57,8.57,0,0,1,5.11,1.36,4.61,4.61,0,0,1,1.88,4,8.27,8.27,0,0,1-.33,2.22A5.7,5.7,0,0,1,105.65,25a6.33,6.33,0,0,1-2.55,1.67,12,12,0,0,1-4.29.64H96.72l-1,4.47a2.39,2.39,0,0,0-.11.63.73.73,0,0,0,.58.77,5.26,5.26,0,0,0,1.43.16h.9l-.3,1.45ZM97,25.71H98.2a4.82,4.82,0,0,0,2.65-.64,3.6,3.6,0,0,0,1.44-1.8,7.37,7.37,0,0,0,.44-2.63,4,4,0,0,0-.89-2.93,3.09,3.09,0,0,0-2.26-.88H99Zm26.15,9.38a8.59,8.59,0,0,1-3.89-.86,6.55,6.55,0,0,1-2.74-2.56,8,8,0,0,1-1-4.17,12.72,12.72,0,0,1,.47-3.32,14.15,14.15,0,0,1,1.41-3.37,13.1,13.1,0,0,1,2.34-3A10.88,10.88,0,0,1,123,15.7a10.6,10.6,0,0,1,4.2-.8,8.81,8.81,0,0,1,3.73.8,6.44,6.44,0,0,1,2.78,2.45,7.88,7.88,0,0,1,1.06,4.29,12.81,12.81,0,0,1-.45,3.24A14.64,14.64,0,0,1,133,29.07a13.35,13.35,0,0,1-2.3,3,10.29,10.29,0,0,1-7.47,3Zm.55-1.81a4.08,4.08,0,0,0,2.44-.77,7,7,0,0,0,1.85-2,13.66,13.66,0,0,0,1.3-2.78,18.52,18.52,0,0,0,.77-3.06,17.91,17.91,0,0,0,.25-2.82,5.92,5.92,0,0,0-1.06-3.89,3.34,3.34,0,0,0-2.65-1.23,4.08,4.08,0,0,0-2.44.77,7.15,7.15,0,0,0-1.86,2,12.74,12.74,0,0,0-1.3,2.78,20.45,20.45,0,0,0-.77,3.06,17,17,0,0,0-.26,2.82,5.8,5.8,0,0,0,1.08,3.91A3.41,3.41,0,0,0,123.75,33.28Zm25.71,1.78a9.08,9.08,0,0,1-5.09-1.15,3.38,3.38,0,0,1-1.69-2.85,2.15,2.15,0,0,1,1-1.93,4.66,4.66,0,0,1,2.56-.64,5.65,5.65,0,0,0,1,3.72,3.29,3.29,0,0,0,2.63,1.19,3.37,3.37,0,0,0,2.4-.81,2.65,2.65,0,0,0,.86-2,3.28,3.28,0,0,0-.27-1.37,3.55,3.55,0,0,0-1-1.21,14.48,14.48,0,0,0-2.1-1.37,10.68,10.68,0,0,1-3.24-2.55,5.49,5.49,0,0,1-1.1-3.54,5,5,0,0,1,.88-2.91,5.82,5.82,0,0,1,2.47-2,11.18,11.18,0,0,1,8.31.18A2.56,2.56,0,0,1,158.61,18a2.08,2.08,0,0,1-.84,1.74,4.58,4.58,0,0,1-2.76.64,6.63,6.63,0,0,0-.23-1.7,3.28,3.28,0,0,0-.82-1.48,2.21,2.21,0,0,0-1.66-.6,3.51,3.51,0,0,0-1.43.3,2.74,2.74,0,0,0-1.14.93,2.66,2.66,0,0,0-.45,1.59,2.86,2.86,0,0,0,.4,1.58,3.88,3.88,0,0,0,1.22,1.14q.82.52,2,1.21A9,9,0,0,1,156,25.84a5.16,5.16,0,0,1,1,3.11,5.4,5.4,0,0,1-2,4.52A8.72,8.72,0,0,1,149.46,35.06Zm18-.27.3-1.45h.36a4.21,4.21,0,0,0,1.59-.29,1.69,1.69,0,0,0,.93-1.36l3.1-14.81h-2.19a2.43,2.43,0,0,0-1.88.64,4.94,4.94,0,0,0-1,1.82l-.38,1.18h-1.84l1.26-5.32h17.05l-1,5.32H182q0-.11.05-.62l.11-1q.05-.49.05-.58a1.34,1.34,0,0,0-.44-1.08,2.31,2.31,0,0,0-1.48-.37h-2.19l-3.15,14.89-.07.33a1.55,1.55,0,0,0,0,.3.72.72,0,0,0,.56.77,5.23,5.23,0,0,0,1.44.16h.36l-.3,1.45Zm21.19,0,.3-1.45h.36a4.24,4.24,0,0,0,1.58-.29,1.68,1.68,0,0,0,.95-1.36l2.8-13.16a6.13,6.13,0,0,0,.16-.93.72.72,0,0,0-.56-.77,5.12,5.12,0,0,0-1.41-.16h-.36l.3-1.45h7.65l1.84,13.33,7.18-13.33h7.92l-.3,1.45h-.36a4.43,4.43,0,0,0-1.62.29,1.69,1.69,0,0,0-1,1.38l-2.82,13.44a2.39,2.39,0,0,0-.11.63.72.72,0,0,0,.56.77,5.11,5.11,0,0,0,1.41.16h.36l-.3,1.45h-9.35l.3-1.45h.36a4.43,4.43,0,0,0,1.62-.29,1.69,1.69,0,0,0,1-1.38L210,17.93,200.9,34.79H199l-2.22-16.86-2.91,13.63-.1.52a2,2,0,0,0,0,.33.73.73,0,0,0,.58.77,5.26,5.26,0,0,0,1.43.16h.08l-.3,1.45Zm32.15,0,.3-1.45h.58a1.86,1.86,0,0,0,.86-.18,2.36,2.36,0,0,0,.71-.64,11.35,11.35,0,0,0,.86-1.32l9.3-16h3.76l2.3,16.15a3.42,3.42,0,0,0,.47,1.41,1.32,1.32,0,0,0,1.21.56h.49l-.3,1.45h-9l.3-1.45h.63a3,3,0,0,0,1.4-.27.92.92,0,0,0,.52-.88q0-.22,0-.45t0-.42l-.36-3H228l-1.37,2.47a3.51,3.51,0,0,0-.52,1.54q0,1,1.54,1h.55l-.3,1.45Zm10.86-13-2.69,4.85h5.57L234,22.07q-.11-1.21-.22-2.15T233.61,18q-.27.66-.55,1.21t-.62,1.17Zm17.26,13,.3-1.45h.36a4.24,4.24,0,0,0,1.58-.29,1.68,1.68,0,0,0,.95-1.36l2.8-13.16a6.13,6.13,0,0,0,.16-.93.72.72,0,0,0-.56-.77,5.12,5.12,0,0,0-1.41-.16h-.36l.3-1.45h6.09l6.69,14.07,2.3-10.83.1-.52a2,2,0,0,0,0-.33.73.73,0,0,0-.58-.77,5.28,5.28,0,0,0-1.43-.16h-.08l.3-1.45h6.91l-.3,1.45h-.36a4.24,4.24,0,0,0-1.58.29,1.68,1.68,0,0,0-.95,1.36l-3.48,16.48h-2.52l-7.43-15.52-2.58,12.28-.1.52a2,2,0,0,0,0,.33.73.73,0,0,0,.58.77,5.26,5.26,0,0,0,1.43.16h.08l-.3,1.45Z"/><path class="cls-2" d="M51.83,0a24.2,24.2,0,0,1,2.32.91A18.74,18.74,0,0,1,56.69,2.3a12.15,12.15,0,0,1,2,1.66A9.09,9.09,0,0,1,60.18,5.9,8.32,8.32,0,0,1,61,8.13a9.76,9.76,0,0,1,.21,2.55,10.75,10.75,0,0,1-.11,1.1q-.08.56-.23,1.14t-.35,1.18q-.21.6-.47,1.22a9,9,0,0,1-.64,1.21,10.22,10.22,0,0,1-.85,1.16,12.22,12.22,0,0,1-1.07,1.11,15.11,15.11,0,0,1-1.29,1.05,12,12,0,0,1-1.54,1,16,16,0,0,1-1.83.81,21.47,21.47,0,0,1-2.12.66q-1.13.29-2.41.51a26.27,26.27,0,0,1-2.72.31q-1.45.09-3.06.06T39.16,23q-1.76-.16-3.68-.44l-6-.88L23.81,32.19,38.05,48.91a3.11,3.11,0,0,0,4.81-.08L77.57,5a3.11,3.11,0,0,0-2.44-5Z"/><path class="cls-2" d="M27.85,2.42l.36-.59.27-.47L28.67,1a1.66,1.66,0,0,0,.09-.23,1.31,1.31,0,0,0,.06-.5.92.92,0,0,0-.09-.3H3.12A3.11,3.11,0,0,0,.75,5.13L15.54,22.49Z"/><polygon class="cls-2" points="38.83 9.95 46.76 9.95 37.58 6.84 38.83 9.95"/><polygon class="cls-1" points="33.1 14.98 46.76 9.95 38.83 9.95 33.1 14.98"/></svg>