<?xml version="1.0" encoding="utf-8"?>
<!-- Generator: Adobe Illustrator 21.1.0, SVG Export Plug-In . SVG Version: 6.00 Build 0)  -->
<svg version="1.1" id="Layer_1" xmlns="http://www.w3.org/2000/svg" xmlns:xlink="http://www.w3.org/1999/xlink" x="0px" y="0px"
	 viewBox="0 0 64 64" style="enable-background:new 0 0 64 64;" xml:space="preserve">
<style type="text/css">
	.st0{fill:#2DAAE1;}
	.st1{fill:#FFFFFF;}
</style>
<path class="st0" d="M64,5.6C64,2.6,61.4,0,58.4,0H5.6C2.6,0,0,2.6,0,5.6v52.7C0,61.4,2.6,64,5.6,64h52.7c3.1,0,5.6-2.6,5.6-5.6V5.6
	"/>
<g id="Icon">
	<path class="st1" d="M52.5,19.3c-1.5,0.7-3.1,1.1-4.8,1.3c1.7-1,3.1-2.7,3.7-4.7c-1.6,1-3.4,1.7-5.3,2c-1.5-1.6-3.7-2.7-6.1-2.7
		c-4.6,0-8.4,3.8-8.4,8.4c0,0.7,0.1,1.3,0.2,1.9c-7-0.4-13.2-3.7-17.4-8.8c-0.7,1.2-1.1,2.7-1.1,4.2c0,2.9,1.5,5.5,3.7,7
		c-1.4,0-2.7-0.4-3.8-1.1c0,0,0,0.1,0,0.1c0,4.1,2.9,7.5,6.8,8.3c-0.7,0.2-1.4,0.3-2.2,0.3c-0.5,0-1.1-0.1-1.6-0.1
		c1.1,3.3,4.2,5.8,7.9,5.8c-2.9,2.3-6.5,3.6-10.5,3.6c-0.7,0-1.4,0-2-0.1c3.7,2.4,8.2,3.8,12.9,3.8c15.5,0,24-12.8,24-24
		c0-0.4,0-0.7,0-1.1C50,22.4,51.4,21,52.5,19.3z"/>
</g>
</svg>
